<svg viewBox="0 0 217 566"
  xmlns="http://www.w3.org/2000/svg">
  <style type="text/css">   
  #body {
    animation: body 15s 10s ease-out normal forwards;
  }
  @keyframes body {
    0% {
      transform: translate(0, 0) scale(1, 1);
    }
    75% {
      transform: translate(90%, 480px) scale(0.1, 0.1);
    }
    100% {
      transform: translate(100%, 0%) scale(0.01, 0.01);
    }
  }
  #legs {
    animation: legs 1s 10s linear normal 15 forwards;
  }
  #legs path {outline: solid black 12px;}
  @keyframes legs {
    0% {
  d:path("M 51.391 536.047 C 52.391 529.047 53.391 524.047 59.391 516.047 L 61.391 511.047 L 62.391 486.047 L 68.391 458.047 L 73.391 433.047 C 74.391 427.047 73.391 421.047 75.391 416.047 C 77.391 409.047 81.391 402.047 81.391 394.047 L 82.391 390.047 L 89.391 375.047 L 96.391 361.047 C 99.391 357.047 105.391 355.047 109.391 358.047 C 115.391 362.047 121.391 366.047 122.391 374.047 C 124.391 388.047 130.391 402.047 134.391 415.047 L 141.391 447.047 L 146.391 474.047 L 152.391 509.047 C 153.391 518.047 153.391 527.047 158.391 534.047 L 159.391 542.047 C 161.391 551.047 153.391 566.047 161.391 566.047 L 191.943 565.434 L 201.65 542.404 L 189.391 539.047 C 184.391 534.047 183.391 527.047 184.391 520.047 L 184.391 498.047 C 183.391 490.047 184.391 482.047 180.391 475.047 L 180.391 471.047 L 180.391 456.047 L 177.391 416.047 L 176.391 389.047 L 175.391 386.047 L 171.391 373.047 L 171.391 360.047 L 169.391 318.468 C 169.391 318.468 27.391 317.047 36.391 318.047 L 35.391 335.047 L 35.391 355.047 L 33.391 398.047 C 32.391 408.047 35.391 418.047 30.391 427.047 L 29.391 431.047 L 29.391 463.047 L 24.391 520.047 C 23.391 528.047 28.068 532.821 22.068 540.821 C 22.068 540.821 16.034 560.37 13.034 562.37 L 45.973 565.434 C 45.973 565.434 63.773 549.379 62.015 542.356 C 60.357 535.729 51.391 539.445 51.391 536.047");
    }
    25% {
  d:path("M 51.391 536.047 C 52.391 529.047 53.391 524.047 59.391 516.047 L 61.391 511.047 L 62.391 486.047 L 68.391 458.047 L 73.391 433.047 C 74.391 427.047 73.391 421.047 75.391 416.047 C 77.391 409.047 81.391 402.047 81.391 394.047 L 82.391 390.047 L 89.391 375.047 L 96.391 361.047 C 99.391 357.047 105.391 355.047 109.391 358.047 C 115.391 362.047 114.037 312.733 115.037 320.733 C 117.037 334.733 123.037 348.733 127.037 361.733 L 134.037 393.733 L 139.037 420.733 L 145.037 455.733 C 146.037 464.733 146.037 473.733 151.037 480.733 L 152.037 488.733 C 154.037 497.733 146.037 512.733 154.037 512.733 L 184.589 512.12 L 194.296 489.09 L 182.037 485.733 C 177.037 480.733 176.037 473.733 177.037 466.733 L 177.037 444.733 C 176.037 436.733 177.037 428.733 173.037 421.733 L 173.037 417.733 L 173.037 402.733 L 170.037 362.733 L 169.037 335.733 L 168.037 332.733 L 164.037 319.733 L 162.199 303.669 L 157.748 259.026 C 157.748 259.026 27.391 317.047 36.391 318.047 L 35.391 335.047 L 35.391 355.047 L 33.391 398.047 C 32.391 408.047 35.391 418.047 30.391 427.047 L 29.391 431.047 L 29.391 463.047 L 24.391 520.047 C 23.391 528.047 28.068 532.821 22.068 540.821 C 22.068 540.821 16.034 560.37 13.034 562.37 L 45.973 565.434 C 45.973 565.434 63.773 549.379 62.015 542.356 C 60.357 535.729 51.391 539.445 51.391 536.047");
    }
    50% {
  d:path("M 51.391 536.047 C 52.391 529.047 53.391 524.047 59.391 516.047 L 61.391 511.047 L 62.391 486.047 L 68.391 458.047 L 73.391 433.047 C 74.391 427.047 73.391 421.047 75.391 416.047 C 77.391 409.047 81.391 402.047 81.391 394.047 L 82.391 390.047 L 89.391 375.047 L 96.391 361.047 C 99.391 357.047 105.391 355.047 109.391 358.047 C 115.391 362.047 121.391 366.047 122.391 374.047 C 124.391 388.047 130.391 402.047 134.391 415.047 L 141.391 447.047 L 146.391 474.047 L 152.391 509.047 C 153.391 518.047 153.391 527.047 158.391 534.047 L 159.391 542.047 C 161.391 551.047 153.391 566.047 161.391 566.047 L 191.943 565.434 L 201.65 542.404 L 189.391 539.047 C 184.391 534.047 183.391 527.047 184.391 520.047 L 184.391 498.047 C 183.391 490.047 184.391 482.047 180.391 475.047 L 180.391 471.047 L 180.391 456.047 L 177.391 416.047 L 176.391 389.047 L 175.391 386.047 L 171.391 373.047 L 171.391 360.047 L 169.391 318.468 C 169.391 318.468 27.391 317.047 36.391 318.047 L 35.391 335.047 L 35.391 355.047 L 33.391 398.047 C 32.391 408.047 35.391 418.047 30.391 427.047 L 29.391 431.047 L 29.391 463.047 L 24.391 520.047 C 23.391 528.047 28.068 532.821 22.068 540.821 C 22.068 540.821 16.034 560.37 13.034 562.37 L 45.973 565.434 C 45.973 565.434 63.773 549.379 62.015 542.356 C 60.357 535.729 51.391 539.445 51.391 536.047");
    }
    75% {
  d:path("M 58.132 490.699 C 59.132 483.699 60.132 478.699 66.132 470.699 L 68.132 465.699 L 69.132 440.699 L 75.132 412.699 L 80.132 387.699 C 81.132 381.699 80.132 375.699 82.132 370.699 C 84.132 363.699 88.132 356.699 88.132 348.699 L 89.132 344.699 L 96.132 329.699 L 103.132 315.699 C 106.132 311.699 105.391 355.047 109.391 358.047 C 115.391 362.047 125.68 372.175 126.68 380.175 C 128.68 394.175 134.68 408.175 138.68 421.175 L 145.68 453.175 L 150.68 480.175 L 156.68 515.175 C 157.68 524.175 157.68 533.175 162.68 540.175 L 163.68 548.175 C 165.68 557.175 157.68 572.175 165.68 572.175 L 196.232 571.562 L 205.939 548.532 L 193.68 545.175 C 188.68 540.175 187.68 533.175 188.68 526.175 L 188.68 504.175 C 187.68 496.175 188.68 488.175 184.68 481.175 L 184.68 477.175 L 184.68 462.175 L 181.68 422.175 L 180.68 395.175 L 179.68 392.175 L 175.68 379.175 L 173.842 363.111 L 169.391 318.468 C 169.391 318.468 35.97 268.635 44.97 269.635 L 42.132 289.699 L 42.132 309.699 L 40.132 352.699 C 39.132 362.699 42.132 372.699 37.132 381.699 L 36.132 385.699 L 36.132 417.699 L 31.132 474.699 C 30.132 482.699 34.809 487.473 28.809 495.473 C 28.809 495.473 22.775 515.022 19.775 517.022 L 52.714 520.086 C 52.714 520.086 70.514 504.031 68.756 497.008 C 67.098 490.381 58.132 494.097 58.132 490.699");
    }
    100% {
  d:path("M 51.391 536.047 C 52.391 529.047 53.391 524.047 59.391 516.047 L 61.391 511.047 L 62.391 486.047 L 68.391 458.047 L 73.391 433.047 C 74.391 427.047 73.391 421.047 75.391 416.047 C 77.391 409.047 81.391 402.047 81.391 394.047 L 82.391 390.047 L 89.391 375.047 L 96.391 361.047 C 99.391 357.047 105.391 355.047 109.391 358.047 C 115.391 362.047 121.391 366.047 122.391 374.047 C 124.391 388.047 130.391 402.047 134.391 415.047 L 141.391 447.047 L 146.391 474.047 L 152.391 509.047 C 153.391 518.047 153.391 527.047 158.391 534.047 L 159.391 542.047 C 161.391 551.047 153.391 566.047 161.391 566.047 L 191.943 565.434 L 201.65 542.404 L 189.391 539.047 C 184.391 534.047 183.391 527.047 184.391 520.047 L 184.391 498.047 C 183.391 490.047 184.391 482.047 180.391 475.047 L 180.391 471.047 L 180.391 456.047 L 177.391 416.047 L 176.391 389.047 L 175.391 386.047 L 171.391 373.047 L 171.391 360.047 L 169.391 318.468 C 169.391 318.468 27.391 317.047 36.391 318.047 L 35.391 335.047 L 35.391 355.047 L 33.391 398.047 C 32.391 408.047 35.391 418.047 30.391 427.047 L 29.391 431.047 L 29.391 463.047 L 24.391 520.047 C 23.391 528.047 28.068 532.821 22.068 540.821 C 22.068 540.821 16.034 560.37 13.034 562.37 L 45.973 565.434 C 45.973 565.434 63.773 549.379 62.015 542.356 C 60.357 535.729 51.391 539.445 51.391 536.047");
    }

  }
}
  </style>
  <filter id="spot">
    <feDiffuseLighting in="SourceGraphic" result="light" lighting-color="white">
      <feSpotLight x="250" y="500" z="50" limitingConeAngle="15" pointsAtX="150" pointsAtY="300" pointsAtZ="0"/>
    </feDiffuseLighting>
    <feComposite in="SourceGraphic" in2="light" operator="arithmetic" k1="1" k2="0" k3="0" k4="0"/>

  </filter>

  <g id="body" filter="url(#spot)">
    <path id="butt" fill="#181d23" d="M 39.239 278.92 L 40.239 276.92 L 42.239 245.92 L 47.239 224.92 L 50.239 193.92 L 54.239 198.92 L 45.239 234.92 L 47.239 258.92 L 42.239 277.92 L 40.239 288.92 L 39.239 278.92 Z M 170.013 336.112 L 167.239 278.92 L 166.239 257.92 L 161.239 240.92 L 160.239 224.92 L 161.239 220.92 L 164.239 189.92 L 164.239 206.92 L 166.239 223.92 L 174.239 254.92 L 179.239 297.92 L 180.239 309.92 C 181.239 315.92 193.239 315.92 196.239 313.92 C 201.239 309.92 203.239 306.92 203.239 296.92 L 203.239 278.92 L 199.239 251.92 L 199.239 203.92 L 196.239 169.92 L 191.239 144.92 L 184.239 123.92 L 163.239 90.92 L 150.239 81.92 L 146.239 72.92 L 71.239 94.92 L 36.239 109.92 L 18.239 183.92 L 20.239 274.92 L 15.239 274.92 L 25.239 306.92 C 23.239 314.92 29.239 316.92 38.239 317.92 L 37.239 334.92"></path>
    <path id="legs" fill="#181d23" d="M 51.391 536.047 C 52.391 529.047 53.391 524.047 59.391 516.047 L 61.391 511.047 L 62.391 486.047 L 68.391 458.047 L 73.391 433.047 C 74.391 427.047 73.391 421.047 75.391 416.047 C 77.391 409.047 81.391 402.047 81.391 394.047 L 82.391 390.047 L 89.391 375.047 L 96.391 361.047 C 99.391 357.047 105.391 355.047 109.391 358.047 C 115.391 362.047 121.391 366.047 122.391 374.047 C 124.391 388.047 130.391 402.047 134.391 415.047 L 141.391 447.047 L 146.391 474.047 L 152.391 509.047 C 153.391 518.047 153.391 527.047 158.391 534.047 L 159.391 542.047 C 161.391 551.047 153.391 566.047 161.391 566.047 L 191.943 565.434 L 201.65 542.404 L 189.391 539.047 C 184.391 534.047 183.391 527.047 184.391 520.047 L 184.391 498.047 C 183.391 490.047 184.391 482.047 180.391 475.047 L 180.391 471.047 L 180.391 456.047 L 177.391 416.047 L 176.391 389.047 L 175.391 386.047 L 171.391 373.047 L 171.391 360.047 L 169.391 318.468 C 169.391 318.468 27.391 317.047 36.391 318.047 L 35.391 335.047 L 35.391 355.047 L 33.391 398.047 C 32.391 408.047 35.391 418.047 30.391 427.047 L 29.391 431.047 L 29.391 463.047 L 24.391 520.047 C 23.391 528.047 28.068 532.821 22.068 540.821 C 22.068 540.821 16.034 560.37 13.034 562.37 L 45.973 565.434 C 45.973 565.434 63.773 549.379 62.015 542.356 C 60.357 535.729 51.391 539.445 51.391 536.047"></path>
    <path fill="#d9e3e8" d="M22 248l-2 34-5-7-3-27v-38l-1-7 1-21 4-24v-3l8-27 7-18c1-4 3-6 5-8l7-6 4-1c-6 10 12 5 15 10 8 19 2 40-7 63-15 38-28 47-33 80zM93 3c1 3 7 0 10-1-7 30-13 54-8 83-15 13-20 6-40 4l4-3 4-21 4-15 7-25L85 7l8-4"/>
    <path fill="#7c7521" d="M162 114c-2-11-4-9-9-20l9-4 1 1 12 15 7 13 3 7-4 3-5 12 5-2 8 5v14l-3 14-4-4-6 9 18-6v18h2l-4 5 5 3-4 4 6 6h-11l4 7-5 3 3 4-3 3h2l3 12-5 12 9-2 3 26-4 11 3 16-18-6-3-40-2-5-3-10-4-21-1-11v-20l4-38-5-14-13 42-12 8-10 8 1 2 10-9 12-1v8l-2-2 1 3-4 11-9 3-11 5-3 21 20-11 5-3-1 5-5 10v8l-1 10 8 9-7 1-1-2 2 2-7 12-14 2-22-1-4-1H70l-8-89c9-9 41-42 39-79 13-4 31-8 48-10M30 288l-1-2 3-1-9-4 1-25c3-54 13-81 15-115l8 4 2 12 2 10v24l-3-1-1 4 1 14-10 14 7 3-6 15-1 3 1 33-9 12M141 86l-20-1c-7-6-10-7-14-14l24-55 3 1 3 4 9 52-5 13"/>
    <path fill="#7c7521" d="M102 88l19-1 21 6 2 5-23-2-19-4m22-84l8 4-1 4-8 3m35 89l4 11-2 1-2-12m-17-22l5 5zM79 235l-1 5-2-1 3-4m11-76l-3-1 1-1 2 2m28-83l-1 2-1-1 2-1M86 272l-1-1v-1l1 1v1m72-164l-4-2 4 2M90 159l1 3-1-3m-8 80h-1m46-103M135 131l-1-1 1 1m-35 87v-1 1"/>
    <path fill="#d0cc3e" d="M103 89v2l19 4 20 2-2-4-18-5-10 1zm-4 185l-6 1-49 2 4-19-1-11-1-11 6-27 3-10-4-8v-24l-2-10 5 3v-5l-2-14-1-15 3-11-5-7-4-7 2-6 8-6 30-5 7-1-4-37 3-18 2-6 7-19-6 1-1-1 2-3h15l6 2 8 4v12l7-2-2 17-1 3-6 12-3 7-1 3-5 9-1 3-2 1c8 8 5 4 10 7l2 6 2-1 17 3 5 5 7 3 12 11 4 9-7 22-10 9v-12l-5-20 6-7-5-7-2 37-4-4v-8l-7 7 1 6-1 1-3-3-5 1-4 6-11 12 1-13-4-20-6-13 2 16 2 16 1 15v15l-11-8h-6l5 15 11 2-3 3 3 10-1 5-7 4-24-15 14 13 3 5 9 8 1 6h-2v-1 1l-6 8-15 9 6 5-7 5c17 6 12 23 14 27l3-4 4 6"/>
    <path fill="#d0cc3e" d="M90 264v1l-1-1m-69 18l-2-34 2-21-1-11-3-6 7-2 4-25-6-11 12-2v-26l2-8 2-8-1-9 10 26-5-2 3 15v12l-4 32-8 5 9 8-15 20 11 4-6 4 2 14-3 23 2 5-3 1-9-4M131 16l1-4 2 5-3-1m-7 67"/>
  </g>
</svg>